<svg width="130" height="40" viewBox="0 0 130 40" fill="none" xmlns="http://www.w3.org/2000/svg">
<path d="M82.2797 9.08643C81.7643 9.08643 81.3506 9.50338 81.3506 10.0155V27.0022C81.3506 27.5177 81.7675 27.9313 82.2797 27.9313H85.4052C85.9206 27.9313 86.3343 27.5144 86.3343 27.0022V10.0155C86.3343 9.50009 85.9174 9.08643 85.4052 9.08643H82.2797Z" fill="#2D2E2D"/>
<path d="M82.2272 3.06543C81.7413 3.06543 81.3506 3.4594 81.3506 3.94201V7.17585C81.3506 7.66175 81.7446 8.05244 82.2272 8.05244H85.4577C85.9436 8.05244 86.3343 7.65847 86.3343 7.17585V3.94201C86.3343 3.45612 85.9403 3.06543 85.4577 3.06543H82.2272Z" fill="#2D2E2D"/>
<path fill-rule="evenodd" clip-rule="evenodd" d="M124.013 8.90368C123.82 9.24512 123.626 9.51105 123.291 9.35346C121.998 8.74281 120.553 8.40137 119.03 8.40137C113.521 8.40137 109.056 12.8532 109.056 18.3425C109.056 23.8319 113.521 28.2837 119.03 28.2837C120.556 28.2837 122.001 27.9423 123.291 27.3316C123.626 27.174 124.013 27.4104 124.013 27.7814V28.2837C124.013 31.0284 122.109 32.23 119.355 32.23C116.754 32.23 114.946 31.2681 114.716 28.7335C114.693 28.4774 114.476 28.2805 114.22 28.2805H110.224C109.936 28.2805 109.706 28.5267 109.722 28.8156C110.001 34.0554 114.026 37.1973 119.355 37.1973C124.683 37.1973 129 33.7698 129 28.2805V8.90368C129 8.6279 128.777 8.40137 128.498 8.40137H124.516C124.24 8.40137 124.158 8.65745 124.013 8.90368ZM119.026 23.3131C116.141 23.3131 113.8 21.0872 113.8 18.3425C113.8 15.5979 116.141 13.372 119.026 13.372C121.912 13.372 124.253 15.5979 124.253 18.3425C124.253 21.0872 121.912 23.3131 119.026 23.3131Z" fill="#2D2E2D"/>
<path d="M107.97 17.2585C107.97 11.7692 103.505 8.02979 97.9955 8.02979C92.4865 8.02979 88.0215 11.7692 88.0215 17.2585V27.0027C88.0215 27.5182 88.4384 27.9318 88.9506 27.9318H92.0761C92.5915 27.9318 93.0052 27.5149 93.0052 27.0027V24.1727V17.2585C93.0052 14.5139 95.2377 13.0004 97.9922 13.0004C100.747 13.0004 102.979 14.5139 102.979 17.2585V27.9318H107.037C107.553 27.9318 107.966 27.5149 107.966 27.0027V20.9356H107.96L107.966 17.2585H107.97Z" fill="#2D2E2D"/>
<path d="M52.2787 8.05273C46.7697 8.05273 42.3047 12.5046 42.3047 17.9939V27.0027C42.3047 27.5182 42.7216 27.9318 43.2338 27.9318H46.3593C46.8747 27.9318 47.2884 27.5149 47.2884 27.0027V18.6144C47.2884 15.525 49.8 13.0233 52.8992 13.0233H54.7706C55.286 13.0233 55.6997 12.6064 55.6997 12.0942V8.98513C55.6997 8.46969 55.2827 8.05602 54.7706 8.05602H52.2754L52.2787 8.05273Z" fill="#2D2E2D"/>
<path d="M30.4203 8.05273C24.9113 8.05273 20.4463 12.5046 20.4463 17.9939C20.4463 23.4832 24.9113 27.9351 30.4203 27.9351C31.9469 27.9351 33.3915 27.5937 34.6817 26.983C35.0166 26.8254 35.2793 27.0421 35.404 27.4328C35.5058 27.6922 35.6273 27.9351 35.9063 27.9351H39.8887C40.1645 27.9351 40.391 27.7119 40.391 27.4328V17.9939C40.391 12.5046 35.926 8.05273 30.417 8.05273H30.4203ZM30.4203 22.9645C27.6231 22.9645 25.3578 20.7386 25.3578 17.9939C25.3578 15.2493 27.6231 13.0233 30.4203 13.0233C33.2175 13.0233 35.4828 15.2493 35.4828 17.9939C35.4828 20.7386 33.2175 22.9645 30.4203 22.9645Z" fill="#2D2E2D"/>
<path d="M18.9622 20.5672C18.1053 20.4228 16.9398 20.2258 16.2241 20.1043C15.8498 20.0419 15.4887 20.2225 15.2917 20.5443C14.5267 21.7754 13.2299 22.6586 11.7065 22.8949C11.6606 22.9015 11.6146 22.9081 11.5654 22.9146C11.4899 22.9245 11.4143 22.9343 11.3356 22.9409C11.1911 22.954 11.0466 22.9606 10.8989 22.9606H10.8891C10.8595 22.9606 10.83 22.9573 10.8004 22.9573C8.00979 22.9081 5.76087 20.7051 5.76087 17.99C5.76087 15.2749 8.00979 13.0719 10.8004 13.0227C10.83 13.0227 10.8595 13.0194 10.8891 13.0194H10.8989C11.0466 13.0194 11.1911 13.0293 11.3356 13.0424C11.4143 13.049 11.4899 13.0588 11.5654 13.0687C11.6113 13.0752 11.6606 13.0818 11.7065 13.0884C13.2299 13.3247 14.53 14.2046 15.2917 15.4391C15.4919 15.7608 15.8531 15.9414 16.2241 15.879C16.9365 15.7575 18.1053 15.5605 18.9622 15.4161C19.5465 15.3176 19.8913 14.7004 19.6713 14.1488C18.2267 10.567 15.0323 8.04883 10.8891 8.04883C5.38003 8.05211 0.915039 12.504 0.915039 17.9933C0.915039 23.4826 5.38003 27.9345 10.8891 27.9345C15.0323 27.9345 18.2267 25.4163 19.6713 21.8345C19.8946 21.2829 19.5498 20.6657 18.9622 20.5672Z" fill="#2D2E2D"/>
<path fill-rule="evenodd" clip-rule="evenodd" d="M67.5633 28.4128C66.6756 28.4109 65.7885 28.0713 65.1113 27.394L64.8891 27.1718C63.7384 25.8051 63.8064 23.7613 65.0931 22.4746L67.5618 20.0059L70.0306 22.4746C71.3173 23.7613 71.3853 25.8052 70.2345 27.1719L70.0124 27.394C69.3359 28.0705 68.45 28.4101 67.5633 28.4128Z" fill="#2D2E2D"/>
<path fill-rule="evenodd" clip-rule="evenodd" d="M76.7498 20.656C75.3832 21.7917 73.3511 21.719 72.0698 20.4377L69.5996 17.9675L72.0683 15.4988C73.3554 14.2117 75.4002 14.1441 76.7669 15.296L76.9892 15.5183C77.5969 16.1261 77.9328 16.9027 77.9967 17.6972C78.0697 18.6724 77.7334 19.6724 76.9876 20.4182L76.7498 20.656Z" fill="#2D2E2D"/>
<path fill-rule="evenodd" clip-rule="evenodd" d="M57.1189 17.8472C57.1504 17.0009 57.4892 16.1638 58.1353 15.5177L58.3642 15.2888C59.7309 14.1434 61.7706 14.2131 63.0554 15.4978L65.5247 17.9671L63.0547 20.4371C61.7725 21.7192 59.7385 21.7912 58.3718 20.653L58.136 20.4172C57.4287 19.7099 57.0897 18.7739 57.1189 17.8472Z" fill="#2D2E2D"/>
<path fill-rule="evenodd" clip-rule="evenodd" d="M67.5613 15.9307L65.0921 13.4614C63.8073 12.1767 63.7376 10.1369 64.883 8.77028L65.111 8.54227C65.7977 7.85564 66.6999 7.51607 67.5998 7.52356C68.474 7.53557 69.3445 7.87507 70.0114 8.54206L70.2373 8.76788C71.3849 10.1346 71.316 12.1761 70.0304 13.4616L67.5613 15.9307Z" fill="#2D2E2D"/>
</svg>
